{
	"asset":{
		"generator":"Khronos glTF Blender I/O v3.5.30",
		"version":"2.0"
	},
	"scene":0,
	"scenes":[
		{
			"name":"Scene",
			"nodes":[
				0
			]
		}
	],
	"nodes":[
		{
			"mesh":0,
			"name":"ABBELLITORE_DX_1",
			"translation":[
				1.3337687253952026,
				0,
				-1.9493541717529297
			]
		}
	],
	"materials":[
		{
			"doubleSided":true,
			"name":"MAT_METAL_GREY.001",
			"pbrMetallicRoughness":{
				"metallicFactor":0.8999999761581421,
				"roughnessFactor":0.1409090906381607
			}
		}
	],
	"meshes":[
		{
			"name":"ABBELLITORE_DX_1",
			"primitives":[
				{
					"attributes":{
						"POSITION":0,
						"TEXCOORD_0":1,
						"TEXCOORD_1":2,
						"NORMAL":3
					},
					"indices":4,
					"material":0
				}
			]
		}
	],
	"accessors":[
		{
			"bufferView":0,
			"componentType":5126,
			"count":1060,
			"max":[
				2.992004156112671,
				0.23376736044883728,
				19.33639907836914
			],
			"min":[
				-2.4613523483276367,
				-2.435481071472168,
				15.435441970825195
			],
			"type":"VEC3"
		},
		{
			"bufferView":1,
			"componentType":5126,
			"count":1060,
			"type":"VEC2"
		},
		{
			"bufferView":2,
			"componentType":5126,
			"count":1060,
			"type":"VEC2"
		},
		{
			"bufferView":3,
			"componentType":5126,
			"count":1060,
			"type":"VEC3"
		},
		{
			"bufferView":4,
			"componentType":5123,
			"count":1266,
			"type":"SCALAR"
		}
	],
	"bufferViews":[
		{
			"buffer":0,
			"byteLength":12720,
			"byteOffset":0,
			"target":34962
		},
		{
			"buffer":0,
			"byteLength":8480,
			"byteOffset":12720,
			"target":34962
		},
		{
			"buffer":0,
			"byteLength":8480,
			"byteOffset":21200,
			"target":34962
		},
		{
			"buffer":0,
			"byteLength":12720,
			"byteOffset":29680,
			"target":34962
		},
		{
			"buffer":0,
			"byteLength":2532,
			"byteOffset":42400,
			"target":34963
		}
	],
	"buffers":[
		{
			"byteLength":44932,
			"uri":"data:application/octet-stream;base64,"
		}
	]
}
