{
	"asset":{
		"generator":"Khronos glTF Blender I/O v3.5.30",
		"version":"2.0"
	},
	"scene":0,
	"scenes":[
		{
			"name":"Scene",
			"nodes":[
				0
			]
		}
	],
	"nodes":[
		{
			"mesh":0,
			"name":"ABBELLITORE_DX"
		}
	],
	"materials":[
		{
			"doubleSided":true,
			"name":"MAT_METAL_GREY.001",
			"pbrMetallicRoughness":{
				"metallicFactor":0.8999999761581421,
				"roughnessFactor":0.1409090906381607
			}
		}
	],
	"meshes":[
		{
			"name":"ABBELLITORE_DX",
			"primitives":[
				{
					"attributes":{
						"POSITION":0,
						"TEXCOORD_0":1,
						"TEXCOORD_1":2,
						"NORMAL":3
					},
					"indices":4,
					"material":0
				}
			]
		}
	],
	"accessors":[
		{
			"bufferView":0,
			"componentType":5126,
			"count":982,
			"max":[
				2.5430006980895996,
				1.0441936254501343,
				19.142250061035156
			],
			"min":[
				-1.9939446449279785,
				-3.237253427505493,
				15.167082786560059
			],
			"type":"VEC3"
		},
		{
			"bufferView":1,
			"componentType":5126,
			"count":982,
			"type":"VEC2"
		},
		{
			"bufferView":2,
			"componentType":5126,
			"count":982,
			"type":"VEC2"
		},
		{
			"bufferView":3,
			"componentType":5126,
			"count":982,
			"type":"VEC3"
		},
		{
			"bufferView":4,
			"componentType":5123,
			"count":1086,
			"type":"SCALAR"
		}
	],
	"bufferViews":[
		{
			"buffer":0,
			"byteLength":11784,
			"byteOffset":0,
			"target":34962
		},
		{
			"buffer":0,
			"byteLength":7856,
			"byteOffset":11784,
			"target":34962
		},
		{
			"buffer":0,
			"byteLength":7856,
			"byteOffset":19640,
			"target":34962
		},
		{
			"buffer":0,
			"byteLength":11784,
			"byteOffset":27496,
			"target":34962
		},
		{
			"buffer":0,
			"byteLength":2172,
			"byteOffset":39280,
			"target":34963
		}
	],
	"buffers":[
		{
			"byteLength":41452,
			"uri":"data:application/octet-stream;base64,"
		}
	]
}
