{
	"asset":{
		"generator":"Khronos glTF Blender I/O v3.5.30",
		"version":"2.0"
	},
	"scene":0,
	"scenes":[
		{
			"name":"Scene",
			"nodes":[
				0
			]
		}
	],
	"nodes":[
		{
			"mesh":0,
			"name":"CERNIERA_DX"
		}
	],
	"materials":[
		{
			"doubleSided":true,
			"name":"MAT_METAL_GREY",
			"pbrMetallicRoughness":{
				"metallicFactor":0.8999999761581421,
				"roughnessFactor":0.1409090906381607
			}
		}
	],
	"meshes":[
		{
			"name":"CERNIERA_DX",
			"primitives":[
				{
					"attributes":{
						"POSITION":0,
						"TEXCOORD_0":1,
						"NORMAL":2
					},
					"indices":3,
					"material":0
				}
			]
		}
	],
	"accessors":[
		{
			"bufferView":0,
			"componentType":5126,
			"count":28963,
			"max":[
				7.664205551147461,
				1.0282936096191406,
				14.810317993164062
			],
			"min":[
				-2.3785476684570312,
				-1.8007698059082031,
				-2.3632125854492188
			],
			"type":"VEC3"
		},
		{
			"bufferView":1,
			"componentType":5126,
			"count":28963,
			"type":"VEC2"
		},
		{
			"bufferView":2,
			"componentType":5126,
			"count":28963,
			"type":"VEC3"
		},
		{
			"bufferView":3,
			"componentType":5123,
			"count":94632,
			"type":"SCALAR"
		}
	],
	"bufferViews":[
		{
			"buffer":0,
			"byteLength":347556,
			"byteOffset":0,
			"target":34962
		},
		{
			"buffer":0,
			"byteLength":231704,
			"byteOffset":347556,
			"target":34962
		},
		{
			"buffer":0,
			"byteLength":347556,
			"byteOffset":579260,
			"target":34962
		},
		{
			"buffer":0,
			"byteLength":189264,
			"byteOffset":926816,
			"target":34963
		}
	],
	"buffers":[
		{
			"byteLength":1116080,
			"uri":"data:application/octet-stream;base64,"
		}
	]
}
