{
	"asset":{
		"generator":"Khronos glTF Blender I/O v3.5.30",
		"version":"2.0"
	},
	"extensionsUsed":[
		"KHR_materials_clearcoat",
		"KHR_materials_transmission",
		"KHR_materials_volume",
		"KHR_materials_ior"
	],
	"scene":0,
	"scenes":[
		{
			"name":"Scene",
			"nodes":[
				0,
				1
			]
		}
	],
	"nodes":[
		{
			"mesh":0,
			"name":"CERNIERA_DX",
			"translation":[
				-1.417378544807434,
				0.7819771766662598,
				1.0296686887741089
			]
		},
		{
			"mesh":1,
			"name":"ASTA_PLASTICA_DX",
			"translation":[
				-1.417378544807434,
				0.7819771766662598,
				1.0296686887741089
			]
		}
	],
	"materials":[
		{
			"doubleSided":true,
			"name":"MAT_METAL_GREY.001",
			"pbrMetallicRoughness":{
				"metallicFactor":0.8999999761581421,
				"roughnessFactor":0.1409090906381607
			}
		},
		{
			"doubleSided":false,
			"extensions":{
				"KHR_materials_clearcoat":{
					"clearcoatFactor":1,
					"clearcoatRoughnessFactor":0.019999999552965164
				},
				"KHR_materials_transmission":{
					"transmissionFactor":1,
					"transmissionTexture":{
						"index":0
					}
				},
				"KHR_materials_volume":{
					"attenuationColor":[
						0.800000011920929,
						0.800000011920929,
						0.800000011920929
					],
					"attenuationDistance":2,
					"thicknessFactor":4,
					"thicknessTexture":{
						"index":1
					}
				},
				"KHR_materials_ior":{
					"ior":1.5299999713897705
				}
			},
			"name":"MAT_ACETATE_GLTF.003",
			"pbrMetallicRoughness":{
				"baseColorTexture":{
					"index":2
				},
				"metallicFactor":0,
				"roughnessFactor":0.12272721529006958
			}
		}
	],
	"meshes":[
		{
			"name":"CERNIERA_DX.002",
			"primitives":[
				{
					"attributes":{
						"POSITION":0,
						"TEXCOORD_0":1,
						"NORMAL":2
					},
					"indices":3,
					"material":0
				}
			]
		},
		{
			"name":"ASTA_PLASTICA_DX.001",
			"primitives":[
				{
					"attributes":{
						"POSITION":4,
						"TEXCOORD_0":5,
						"NORMAL":6
					},
					"indices":7,
					"material":1
				}
			]
		}
	],
	"textures":[
		{
			"sampler":0,
			"source":0
		},
		{
			"sampler":0,
			"source":0
		},
		{
			"sampler":0,
			"source":0
		}
	],
	"images":[
		{
			"bufferView":8,
			"mimeType":"image/jpeg",
			"name":"segnaPosto"
		}
	],
	"accessors":[
		{
			"bufferView":0,
			"componentType":5126,
			"count":28963,
			"max":[
				7.664205551147461,
				1.0282936096191406,
				14.810317993164062
			],
			"min":[
				-2.3785476684570312,
				-1.8007698059082031,
				-2.3632125854492188
			],
			"type":"VEC3"
		},
		{
			"bufferView":1,
			"componentType":5126,
			"count":28963,
			"type":"VEC2"
		},
		{
			"bufferView":2,
			"componentType":5126,
			"count":28963,
			"type":"VEC3"
		},
		{
			"bufferView":3,
			"componentType":5123,
			"count":94632,
			"type":"SCALAR"
		},
		{
			"bufferView":4,
			"componentType":5126,
			"count":16393,
			"max":[
				28.384708404541016,
				4.035472869873047,
				6.7098541259765625
			],
			"min":[
				-2.4398109912872314,
				-22.320283889770508,
				-128.40103149414062
			],
			"type":"VEC3"
		},
		{
			"bufferView":5,
			"componentType":5126,
			"count":16393,
			"type":"VEC2"
		},
		{
			"bufferView":6,
			"componentType":5126,
			"count":16393,
			"type":"VEC3"
		},
		{
			"bufferView":7,
			"componentType":5123,
			"count":64356,
			"type":"SCALAR"
		}
	],
	"bufferViews":[
		{
			"buffer":0,
			"byteLength":347556,
			"byteOffset":0,
			"target":34962
		},
		{
			"buffer":0,
			"byteLength":231704,
			"byteOffset":347556,
			"target":34962
		},
		{
			"buffer":0,
			"byteLength":347556,
			"byteOffset":579260,
			"target":34962
		},
		{
			"buffer":0,
			"byteLength":189264,
			"byteOffset":926816,
			"target":34963
		},
		{
			"buffer":0,
			"byteLength":196716,
			"byteOffset":1116080,
			"target":34962
		},
		{
			"buffer":0,
			"byteLength":131144,
			"byteOffset":1312796,
			"target":34962
		},
		{
			"buffer":0,
			"byteLength":196716,
			"byteOffset":1443940,
			"target":34962
		},
		{
			"buffer":0,
			"byteLength":128712,
			"byteOffset":1640656,
			"target":34963
		},
		{
			"buffer":0,
			"byteLength":7508,
			"byteOffset":1769368
		}
	],
	"samplers":[
		{
			"magFilter":9729,
			"minFilter":9987
		}
	],
	"buffers":[
		{
			"byteLength":1776876,
			"uri":"data:application/octet-stream;base64,"
		}
	]
}
